<?xml version="1.0" encoding="utf-8"?>
<!-- Generator: Adobe Illustrator 23.0.6, SVG Export Plug-In . SVG Version: 6.00 Build 0)  -->
<svg version="1.1" id="Layer_1" xmlns="http://www.w3.org/2000/svg" xmlns:xlink="http://www.w3.org/1999/xlink" x="0px" y="0px"
	 viewBox="0 0 512 512" style="enable-background:new 0 0 512 512;" xml:space="preserve">
<style type="text/css">
	.st0{fill:#949494;}
	.st1{fill:#898989;}
	.st2{fill:#7B7B7B;}
	.st3{fill:#FFFFFF;}
	.st4{fill:#EFEFEF;}
	.st5{fill:#C6C6C6;}
	.st6{fill:#E44D26;}
	.st7{fill:#F16529;}
	.st8{fill:#EBEBEB;}
</style>
<title>HTML5 Logo</title>
<g>
	<path class="st0" d="M346.4,402.5c0.8,0.6,1.7,1.1,2.5,1.7c2.3,1.6,4.6,3.1,7,4.7c3.5,2.4,7,4.7,10.6,7.1c4.4,3,8.9,6,13.3,8.9
		c5.1,3.4,10.3,6.9,15.4,10.3c5.5,3.7,11,7.4,16.5,11c5.6,3.8,11.3,7.5,16.9,11.3c5.4,3.6,10.9,7.3,16.3,10.9c5,3.4,10,6.7,15,10.1
		c4.3,2.9,8.7,5.8,13,8.7c3.3,2.2,6.6,4.5,10,6.7c2.1,1.4,4.1,2.8,6.2,4.2c1.7,1.2,3.5,2.3,5.5,3c3.3,1.1,6.9,0.8,9.9-1.1
		c3.4-2.1,5.5-5.7,6.6-9.4c0.8-2.7,1-5.5,1-8.2c0-1.2,0-2.4,0-3.6c0-2.1,0-4.1,0-6.2c0-2.9,0-5.7,0-8.6c0-3.6,0-7.2,0-10.8
		c0-4.2,0-8.5,0-12.7c0-4.8,0-9.6,0-14.4c0-5.3,0-10.7,0-16c0-5.7,0-11.5,0-17.2c0-6.1,0-12.2,0-18.3c0-6.4,0-12.7,0-19.1
		c0-6.6,0-13.1,0-19.7c0-6.7,0-13.5,0-20.2c0-6.8,0-13.5,0-20.3c0-6.7,0-13.5,0-20.2c0-6.7,0-13.4,0-20.1c0-6.5,0-13,0-19.5
		c0-6.3,0-12.5,0-18.8c0-6,0-11.9,0-17.9c0-5.6,0-11.1,0-16.7c0-5.1,0-10.2,0-15.4c0-4.6,0-9.1,0-13.7c0-4,0-7.9,0-11.9
		c0-3.3,0-6.6,0-9.9c0-2.5,0-5,0-7.6c0-1.7,0-3.4,0-5.1c0-0.7,0.2-1.7,0-2.4c-0.1-0.5-0.8-1-1.2-1.4c-1.8-2-3.6-3.9-5.4-5.9
		c-3-3.3-6-6.5-9-9.8c-3.8-4.2-7.7-8.3-11.5-12.5c-4.4-4.7-8.7-9.5-13.1-14.2c-4.6-5-9.2-10-13.8-15c-4.4-4.8-8.9-9.7-13.3-14.5
		c-4-4.4-8-8.7-12-13.1c-3.2-3.5-6.5-7.1-9.7-10.6c-2.1-2.3-4.3-4.7-6.4-7c-0.6-0.6-1.1-1.2-1.7-1.8c-0.1-0.1-0.4-0.5-0.5-0.5
		c-0.3,0-1.3,0.9-1.6,1.1c-1.3,0.9-2.6,1.7-3.9,2.6c-4.2,2.8-8.5,5.7-12.7,8.5c-5.5,3.7-10.9,7.3-16.4,11
		c-5.4,3.6-10.8,7.2-16.2,10.8c-4.1,2.8-8.3,5.5-12.4,8.3c-1.7,1.1-3.4,2.2-5,3.4c-1.4,1-2.4,2.6-3.3,4.1c-1.1,2.1-2,4.3-2.7,6.6
		c-1.2,4-2,8.3-2,12.5c0,0.7,0,1.4,0,2.2c0,1.8,0,3.7,0,5.5c0,2.8,0,5.6,0,8.4c0,3.7,0,7.4,0,11.1c0,4.5,0,9,0,13.4
		c0,5.1,0,10.2,0,15.3c0,5.7,0,11.4,0,17.1c0,6.1,0,12.2,0,18.3c0,6.4,0,12.9,0,19.3c0,6.7,0,13.4,0,20c0,6.7,0,13.5,0,20.2
		c0,6.7,0,13.5,0,20.2c0,6.7,0,13.3,0,20c0,6.4,0,12.8,0,19.2c0,6.1,0,12.1,0,18.2c0,5.7,0,11.3,0,17c0,5.1,0,10.1,0,15.2
		c0,4.4,0,8.8,0,13.2c0,3.6,0,7.3,0,10.9c0,2.7,0,5.5,0,8.2c0,1.7,0,3.5,0,5.2c0,0.6,0,1.3,0,1.9c0,4.6,0.9,9.2,2.4,13.5
		C341.8,396,343.3,400.4,346.4,402.5z"/>
	<path class="st1" d="M338.3,137.1c0,1.8,0,3.7,0,5.5c0,5.1,0,10.1,0,15.2c0,7.5,0,15.1,0,22.6c0,9.3,0,18.7,0,28
		c0,10.5,0,20.9,0,31.4c0,10.9,0,21.7,0,32.6c0,10.5,0,21.1,0,31.6c0,9.5,0,19,0,28.5c0,7.8,0,15.7,0,23.5c0,5.4,0,10.8,0,16.2
		c0,2.3,0,4.5,0,6.8c0,6.3,1.5,12.9,4.4,18.5c1.1,2.1,2.4,4,4.4,5.3c3.3,2.2,6.6,4.4,9.9,6.6c6.3,4.2,12.7,8.5,19,12.7
		c8.2,5.5,16.4,11,24.6,16.5c9,6,17.9,12,26.9,18c8.6,5.8,17.2,11.5,25.9,17.3c7.1,4.8,14.2,9.5,21.3,14.3c4.5,3,8.9,6,13.4,9
		c4.2,2.8,8.9,6,14.1,3.9c6.3-2.5,8-10.3,8-16.4"/>
	<path class="st2" d="M338.3,137.1c0,1.1,0,2.2,0,3.4c0,3.1,0,6.3,0,9.4c0,4.8,0,9.7,0,14.5c0,6.2,0,12.3,0,18.5
		c0,7.2,0,14.4,0,21.6c0,7.9,0,15.8,0,23.8c0,8.3,0,16.7,0,25c0,8.4,0,16.7,0,25.1c0,8.1,0,16.3,0,24.4c0,7.5,0,15,0,22.6
		c0,6.6,0,13.2,0,19.8c0,5.4,0,10.8,0,16.2c0,3.8,0,7.6,0,11.5c0,1.9,0,3.9,0,5.8c0,1.6,0.1,3.3,0.3,4.9c0.4,3.3,1.2,6.6,2.3,9.7
		c0.9,2.6,2,5.2,3.7,7.4c1.8,2.3,4.9,3.9,7.3,5.5c5.3,3.5,10.6,7.1,15.9,10.6c6.8,4.6,13.6,9.1,20.4,13.7
		c6.4,4.3,12.9,8.6,19.3,12.9c4.1,2.7,8.2,5.5,12.3,8.2c0.6,0.4,1.1,0.8,1.7,1.1"/>
	<path class="st1" d="M425.5,134.2c0-2.7,0-5.4,0-8.1c0-6.8,0-13.5,0-20.3c0-8.7,0-17.5,0-26.2c0-8.7,0-17.4,0-26.2
		c0-6.7,0-13.4,0-20.1c0-1.9,0-3.9,0-5.8c0-0.9,0.1-1.8-0.1-2.7c-0.1-0.8-0.5-1.5-0.6-2.3c-0.1-0.4,0-0.7-0.2-1.1
		c-0.2-0.4-0.7-0.8-1-1.2c-1.4-1.5-2.7-3-4.1-4.6c-1.2-1.4-2.4-2.7-3.7-4.1c-0.5-0.5-0.3-0.5-1-0.4c-0.7,0.1-1.2-0.4-1.9,0
		c-1.3,0.7-2.6,1.7-3.8,2.6c-2.8,1.9-5.5,3.7-8.3,5.6c-7.3,4.9-14.6,9.8-21.9,14.7c-5,3.4-10.1,6.8-15.1,10.1
		c-0.3,0.2-0.5,0.3-0.8,0.5c2.1,3.1,4.2,6.2,6.2,9.2c5,7.4,9.9,14.7,14.9,22.1c5.9,8.8,11.9,17.6,17.8,26.4
		c5,7.5,10.1,14.9,15.1,22.4c1.6,2.4,3.2,4.7,4.8,7.1c0.5,0.7,0.9,1.4,1.4,2.1c0.1,0.2,0.4,0.8,0.6,0.8
		C424.2,134.8,425.1,134.3,425.5,134.2z"/>
	<path class="st2" d="M425.5,135c0-5.4,0-10.8,0-16.3c0-12.1,0-24.2,0-36.2c0-12.4,0-24.9,0-37.3c0-6.5,0.1-13,0-19.5
		c0-0.3,0-0.6-0.1-0.9c-0.1-0.6-0.3-1.1-0.5-1.7c-0.1-0.4-0.1-1.2-0.3-1.5c-0.1-0.2-0.3-0.4-0.4-0.5c-1.9-2.1-3.8-4.2-5.7-6.4
		c-0.9-1-1.7-1.9-2.6-2.9c-0.1-0.2-0.4-0.6-0.6-0.7c-0.3-0.1,0.6,0.2-0.3,0c-0.4-0.1-1.2-0.2-1.6-0.2c-0.4,0-0.8,0.4-1.1,0.6
		c-0.7,0.4-1.3,0.9-2,1.3c-5,3.3-10,6.7-14.9,10c-2.3,1.5-4.6,3.1-6.9,4.6c-0.7,0.5-1.4,1-2.2,1.4c-0.1,0.1-0.8,0.4-0.8,0.6
		c-0.1,0.2,0.4,1,0.5,1.2c0.4,1.2,0.9,2.4,1.3,3.6c1.5,4.2,3.1,8.4,4.6,12.6c4.4,11.9,8.8,23.9,13.2,35.8c3.6,9.7,7.1,19.3,10.7,29
		c2.4,6.5,5.2,12.7,8,19C424.3,132.1,424.9,133.6,425.5,135z"/>
	<path class="st3" d="M414.5,10.2c-0.7,0.4-0.8,0.3-0.8,1c0,0.6,0,1.2,0,1.8c0,2.4,0,4.8,0,7.2c0,8.2,0,16.4,0,24.6
		c0,10.3,0,20.6,0,30.9c0,9.3,0,18.7,0,28c0,5.4,0,10.8,0,16.3c0,3.4,0.2,6.7,1.1,10c1.3,4.9,5,12.9,11.4,11.3
		c4.1-1,8.1-2.3,12.1-3.4c9.1-2.5,18.1-5.1,27.2-7.6c9.6-2.7,19.2-5.4,28.8-8.1c5.6-1.6,11.2-3.2,16.8-4.7c0.3-0.1,0.5-0.2,0.8-0.2
		c-0.9-1-1.7-1.9-2.6-2.9c-2.4-2.6-4.7-5.2-7.1-7.8c-3.5-3.8-7-7.7-10.5-11.5c-4.3-4.7-8.5-9.4-12.8-14c-4.7-5.1-9.3-10.3-14-15.4
		c-4.7-5.2-9.4-10.4-14.1-15.5c-4.4-4.8-8.8-9.7-13.2-14.5c-3.7-4.1-7.4-8.2-11.1-12.2c-2.7-2.9-5.3-5.9-8-8.8
		c-1.3-1.4-2.5-2.8-3.8-4.2C414.6,10.3,414.6,10.3,414.5,10.2z"/>
	<path class="st4" d="M512,117.3c-2.6-2.9-5.3-5.8-7.9-8.7c-6.5-7.1-12.9-14.2-19.4-21.3c-8.3-9.1-16.6-18.2-24.9-27.3
		c-8-8.8-16-17.5-23.9-26.3c-5.7-6.2-11.3-12.4-17-18.6c-1.3-1.4-2.6-2.9-3.9-4.3c-0.3-0.3-0.3-0.5-0.6-0.4
		c-0.7,0.1-0.6,0.7-0.6,1.2c0,6.6,0,13.3,0,19.9c0,11.7,0,23.4,0,35.2c0,11.8,0,23.7,0,35.5c0,6.8,0,13.5,0,20.3c0,0.3,0,0.6,0,1"/>
	<path class="st5" d="M499.6,120.5c0,0.9,0,1.8,0,2.7c0,2.6,0,5.2,0,7.7c0,4.1,0,8.1,0,12.2c0,5.3,0,10.7,0,16c0,6.4,0,12.9,0,19.3
		c0,7.4,0,14.8,0,22.2c0,8,0,16.1,0,24.1c0,8.6,0,17.3,0,25.9c0,8.9,0,17.9,0,26.8c0,9.1,0,18.2,0,27.2c0,9,0,18.1,0,27.1
		c0,8.8,0,17.6,0,26.4c0,8.4,0,16.8,0,25.2c0,7.7,0,15.5,0,23.2c0,6.9,0,13.9,0,20.8c0,5.9,0,11.9,0,17.8c0,4.7,0,9.5,0,14.2
		c0,3.4,0,6.7,0,10.1c0,1.8,0,3.6,0,5.3c0,6.1-0.7,13.2-4.8,18c-1.3,1.6-3.1,2.8-5.1,3c-2.3,0.3-4.5-0.6-6.3-1.8
		c2.8,1.9,5.6,3.9,8.5,5.6c4.6,2.6,10.1,2.4,14.1-1c4.7-4.1,6-10.6,6-16.5c0-2,0-3.9,0-5.9c0-3.7,0-7.4,0-11.1c0-5.2,0-10.4,0-15.5
		c0-6.4,0-12.9,0-19.3c0-7.5,0-15,0-22.5c0-8.4,0-16.7,0-25.1c0-9,0-17.9,0-26.9c0-9.4,0-18.8,0-28.2c0-9.6,0-19.3,0-28.9
		c0-9.6,0-19.2,0-28.8c0-9.4,0-18.7,0-28.1c0-9,0-17.9,0-26.9c0-8.3,0-16.6,0-24.9c0-7.4,0-14.9,0-22.3c0-6.4,0-12.8,0-19.2
		c0-5.1,0-10.2,0-15.3c0-3.6,0-7.2,0-10.7c0-1.9,0-3.8,0-5.7c0-0.2,0-0.5,0-0.7C507.9,117.7,503.7,119.1,499.6,120.5z"/>
</g>
<g>
	<path class="st0" d="M173.7,379.2c0-0.6,0-1.2,0-1.8c0-1.7,0-3.4,0-5.1c0-2.7,0-5.4,0-8.1c0-3.6,0-7.2,0-10.8c0-4.4,0-8.8,0-13.2
		c0-5,0-10.1,0-15.1c0-5.6,0-11.2,0-16.8c0-6.1,0-12.2,0-18.3c0-6.4,0-12.8,0-19.2c0-6.6,0-13.3,0-19.9c0-6.8,0-13.6,0-20.3
		c0-6.8,0-13.5,0-20.3c0-6.6,0-13.3,0-19.9c0-6.5,0-12.9,0-19.4c0-6.1,0-12.2,0-18.3c0-5.7,0-11.4,0-17c0-5.2,0-10.3,0-15.5
		c0-4.5,0-9,0-13.4c0-3.7,0-7.4,0-11.1c0-2.9,0-5.7,0-8.6c0-1.9,0-3.7,0-5.6c0-0.8,0-1.5,0-2.3c0-3.9-0.7-7.7-1.7-11.5
		c-0.7-2.4-1.5-4.8-2.7-7c-0.8-1.6-1.8-3.3-3.3-4.5c-1.6-1.3-3.4-2.3-5.1-3.5c-4.1-2.7-8.1-5.5-12.2-8.2
		c-5.4-3.6-10.8-7.2-16.2-10.9c-5.4-3.6-10.9-7.3-16.3-10.9c-4.3-2.9-8.6-5.8-12.9-8.6c-1.3-0.9-2.7-1.8-4-2.7
		c-0.3-0.2-1.3-1.2-1.8-1.2c-0.1,0-0.4,0.3-0.5,0.4c-0.5,0.6-1.1,1.2-1.6,1.8c-2.1,2.3-4.2,4.6-6.3,6.8c-3.2,3.5-6.4,7-9.6,10.5
		c-4,4.3-8,8.7-11.9,13c-4.4,4.8-8.9,9.6-13.3,14.5c-4.6,5-9.2,10-13.8,15c-4.4,4.8-8.7,9.5-13.1,14.3c-3.9,4.2-7.7,8.4-11.6,12.6
		c-3,3.3-6,6.6-9.1,9.9c-1.8,2-3.7,4-5.5,6c-0.4,0.4-1.1,1-1.3,1.5c-0.2,0.6,0,1.6,0,2.3c0,1.7,0,3.3,0,5c0,2.5,0,5,0,7.5
		c0,3.3,0,6.5,0,9.8c0,3.9,0,7.9,0,11.8c0,4.5,0,9.1,0,13.6c0,5.1,0,10.2,0,15.3c0,5.5,0,11.1,0,16.6c0,5.9,0,11.9,0,17.8
		c0,6.3,0,12.6,0,18.8c0,6.5,0,13,0,19.5c0,6.7,0,13.3,0,20c0,6.8,0,13.6,0,20.3c0,6.8,0,13.5,0,20.3c0,6.7,0,13.4,0,20.1
		c0,6.6,0,13.2,0,19.8c0,6.4,0,12.7,0,19.1c0,6.1,0,12.2,0,18.3c0,5.8,0,11.5,0,17.3c0,5.3,0,10.6,0,16c0,4.8,0,9.6,0,14.5
		c0,4.3,0,8.5,0,12.8c0,3.6,0,7.2,0,10.8c0,2.9,0,5.8,0,8.6c0,2.1,0,4.2,0,6.3c0,1.2,0,2.4,0,3.6c0,2.5,0.2,5.1,0.8,7.5
		c0.9,3.8,2.9,7.6,6.3,9.9c2.9,2,6.5,2.5,9.9,1.5c2.2-0.6,4-1.9,5.9-3.1c2-1.4,4.1-2.7,6.1-4.1c3.3-2.2,6.6-4.4,9.9-6.6
		c4.3-2.9,8.6-5.7,12.8-8.6c5-3.3,10-6.7,15-10c5.5-3.7,10.9-7.3,16.4-11c5.6-3.8,11.2-7.5,16.8-11.3c5.5-3.7,11-7.4,16.5-11.1
		c5.1-3.4,10.3-6.9,15.4-10.3c4.5-3,8.9-6,13.4-9c3.5-2.4,7.1-4.8,10.6-7.1c2.4-1.6,4.7-3.2,7.1-4.7c0.9-0.6,1.8-1.2,2.6-1.8
		c2.7-1.9,4.2-5.5,5.3-8.6C172.7,389.2,173.7,384.2,173.7,379.2z"/>
	<path class="st1" d="M1.9,484.8c0,6.2,1.9,14.4,8.6,16.6c3.8,1.3,7.7-0.2,10.9-2.4c2.8-1.9,5.6-3.8,8.4-5.6c6-4,11.9-8,17.9-12
		c8-5.4,16-10.7,24-16.1c9-6,17.9-12,26.9-18c8.7-5.8,17.5-11.7,26.2-17.5c7.4-4.9,14.7-9.9,22.1-14.8c4.9-3.3,9.8-6.5,14.6-9.8
		c1.2-0.8,2.3-1.6,3.5-2.3c2.2-1.5,3.6-3.7,4.7-6.1c2.9-6.3,4-13.1,4-19.9c0-4,0-8,0-11.9c0-6.7,0-13.5,0-20.2c0-8.8,0-17.6,0-26.4
		c0-10.2,0-20.3,0-30.5c0-10.8,0-21.5,0-32.3c0-10.7,0-21.4,0-32.2c0-10,0-20,0-30c0-8.5,0-17,0-25.6c0-6.3,0-12.7,0-19
		c0-3.5,0-6.9,0-10.4c0-0.4,0-0.9,0-1.3"/>
	<path class="st2" d="M90.5,452.8c2.3-1.5,4.6-3.1,6.9-4.6c5.5-3.7,11.1-7.4,16.6-11.1c6.9-4.6,13.8-9.2,20.7-13.8
		c6.3-4.2,12.5-8.4,18.8-12.6c3.7-2.5,7.4-5,11.1-7.5c1.2-0.8,2.2-1.6,3.1-2.9c3.5-4.9,5.2-11.5,5.8-17.4c0.2-2.2,0.2-4.3,0.2-6.5
		c0-2.9,0-5.9,0-8.8c0-4.7,0-9.4,0-14.1c0-6.1,0-12.1,0-18.2c0-7.1,0-14.2,0-21.4c0-7.9,0-15.8,0-23.7c0-8.3,0-16.6,0-24.9
		c0-8.4,0-16.8,0-25.2c0-8.1,0-16.3,0-24.4c0-7.6,0-15.2,0-22.8c0-6.7,0-13.5,0-20.2c0-5.5,0-11,0-16.5c0-4,0-8,0-12
		c0-2.1,0-4.2,0-6.4c0-0.3,0-0.5,0-0.8"/>
	<path class="st1" d="M88.1,134.7c2-3,4-6,6.1-9c4.8-7.2,9.7-14.4,14.5-21.6c5.8-8.7,11.7-17.3,17.5-26c5.1-7.5,10.1-15,15.2-22.5
		c1.7-2.5,3.4-5,5-7.4c0.5-0.8,1-1.5,1.5-2.3c0.2-0.3,0.7-0.8,0.8-1.2c0,0,0.1-0.1,0.1-0.2c-3.7-2.5-7.4-5-11.2-7.5
		c-7.3-4.9-14.6-9.8-22-14.7c-5.3-3.5-10.5-7-15.8-10.6c-0.3-0.2-0.6-0.5-1-0.7c-0.4-0.2-0.7-0.1-1.2-0.1c-0.3,0.1-0.6,0-0.9,0.1
		c-0.1,0-0.2-0.1-0.3-0.1c-0.3,0.1-0.7,0.8-0.9,1c-2.6,2.9-5.2,5.9-7.9,8.8c-0.4,0.4-0.5,0.5-0.6,1c-0.3,1.2-0.7,2.4-0.8,3.6
		c0,0.2,0,0.5,0,0.7c0,1.5,0,3,0,4.5c0,6.2,0,12.3,0,18.5c0,8.6,0,17.2,0,25.8c0,9,0,17.9,0,26.9c0,7.3,0,14.6,0,21.9
		c0,2.3,0,4.7,0,7c0,0.7,0,1.5,0,2.2c0,0.3-0.1,0.9,0,1.2C86.7,134.6,87.5,134.6,88.1,134.7z"/>
	<path class="st2" d="M94.8,115.9c1.9-5.1,3.7-10.2,5.6-15.3c4-10.8,7.9-21.6,11.9-32.4c3.7-10,7.3-19.9,11-29.9
		c0.9-2.6,1.9-5.2,2.8-7.7c0.1-0.2,0.4-0.8,0.4-1c-0.1-0.2-0.6-0.4-0.8-0.5c-0.6-0.4-1.3-0.8-1.9-1.3c-8.2-5.5-16.2-11.1-24.5-16.4
		c-0.1-0.1-0.2-0.1-0.3-0.2c-0.6-0.3-1,0-1.6,0c-0.5,0-0.5-0.2-0.9,0c-0.3,0.1-0.5,0.6-0.7,0.8c-1.8,2.1-3.7,4.1-5.5,6.2
		c-0.8,0.9-1.6,1.8-2.4,2.6c-0.2,0.2-0.4,0.4-0.6,0.6c-0.3,0.5-0.3,1.3-0.4,1.9c-0.3,1-0.4,1.8-0.4,2.8c0,6.4,0,12.8,0,19.2
		c0,11.4,0,22.8,0,34.2c0,11.5,0,23.1,0,34.6c0,6.6,0,13.2,0,19.8c0,0.3,0,0.6,0,0.9c2.4-5.6,4.8-11.1,7.2-16.7
		C94.1,117.5,94.4,116.7,94.8,115.9z"/>
	<path class="st3" d="M0,117.3c2.9,0.8,5.8,1.6,8.7,2.5c6.9,1.9,13.8,3.9,20.8,5.8c8.3,2.3,16.6,4.7,25,7c7.1,2,14.2,4,21.3,6
		c3.3,0.9,6.5,1.9,9.9,2.8c4.2,1.1,7.5-2.3,9.4-5.7c2.4-4.4,3.2-9.5,3.2-14.4c0-3.1,0-6.2,0-9.3c0-6.7,0-13.3,0-20
		c0-8.5,0-16.9,0-25.4c0-8.5,0-17,0-25.5c0-6.8,0-13.6,0-20.3c0-2.2,0-4.3,0-6.5c0-1,0.2-2.3,0-3.3c0-0.1,0-0.2,0-0.2
		c-0.1-0.1-0.7-0.5-0.8-0.5c-0.1,0-0.2,0.3-0.3,0.3c-0.7,0.7-1.4,1.5-2.1,2.3c-3.1,3.4-6.1,6.7-9.2,10.1c-4.7,5.1-9.3,10.2-14,15.3
		C66.3,44.5,60.6,50.7,55,56.9c-5.9,6.4-11.7,12.9-17.6,19.3C32,82.1,26.6,88.1,21.2,94c-4.3,4.7-8.6,9.4-12.9,14.2
		c-2.4,2.7-4.9,5.4-7.3,8C0.6,116.6,0.3,116.9,0,117.3z"/>
	<path class="st4" d="M98.2,123.4c0-4.8,0-9.7,0-14.5c0-11,0-22.1,0-33.1c0-12.3,0-24.5,0-36.8c0-8.3,0-16.6,0-24.9
		c0-0.9,0-1.8,0-2.6c0-0.2,0.1-0.5,0-0.6c-0.1-0.2-0.4-0.7-0.7-0.6c-0.1,0-0.4,0.5-0.5,0.6c-0.5,0.6-1,1.1-1.5,1.7
		C90.6,17.7,85.8,23,81,28.3C73.4,36.7,65.8,45,58.2,53.4C49.8,62.6,41.4,71.8,33.1,81c-7.1,7.8-14.2,15.6-21.4,23.5
		c-3.7,4.1-7.5,8.2-11.2,12.3c-0.2,0.2-0.3,0.4-0.5,0.6"/>
	<path class="st5" d="M12.4,120.5c-4.1-1.4-8.3-2.8-12.4-4.2c0,1,0,2,0,2.9c0,2.8,0,5.6,0,8.4c0,4.4,0,8.8,0,13.2
		c0,5.8,0,11.6,0,17.4c0,7,0,13.9,0,20.9c0,7.9,0,15.8,0,23.7c0,8.7,0,17.4,0,26.1c0,9.2,0,18.4,0,27.6c0,9.5,0,19,0,28.5
		c0,9.7,0,19.3,0,29c0,9.5,0,19,0,28.5c0,9.2,0,18.5,0,27.7c0,8.7,0,17.3,0,26c0,7.9,0,15.9,0,23.8c0,7,0,14,0,21
		c0,5.8,0,11.6,0,17.4c0,4.4,0,8.8,0,13.3c0,2.8,0,5.7,0,8.5c0,1,0,2,0,3c0,5.8,1.6,12.3,6.4,16.1c4.2,3.3,9.7,3.1,14.1,0.3
		c2.7-1.7,5.4-3.5,8-5.3c-1.9,1.3-4.2,2.2-6.5,1.8c-2.2-0.3-4-1.7-5.3-3.4c-3.6-4.6-4.4-11.2-4.4-16.9c0-0.9,0-1.9,0-2.8
		c0-2.6,0-5.3,0-7.9c0-4.1,0-8.2,0-12.2c0-5.4,0-10.8,0-16.2c0-6.5,0-13,0-19.4c0-7.4,0-14.8,0-22.1c0-8.1,0-16.2,0-24.3
		c0-8.6,0-17.2,0-25.9c0-8.9,0-17.9,0-26.8c0-9.1,0-18.2,0-27.3c0-9,0-18.1,0-27.1c0-8.8,0-17.6,0-26.4c0-8.4,0-16.8,0-25.2
		c0-7.7,0-15.4,0-23.1c0-6.9,0-13.9,0-20.8c0-5.9,0-11.8,0-17.7c0-4.7,0-9.4,0-14.1c0-3.3,0-6.6,0-9.9c0-1.7,0-3.5,0-5.2
		C12.4,120.9,12.4,120.7,12.4,120.5L12.4,120.5z"/>
</g>
<g>
	<path class="st6" d="M140.4,384.3c-0.1-0.7-0.1-1.3-0.2-2c-0.2-1.9-0.3-3.8-0.5-5.7c-0.3-3-0.5-6-0.8-9c-0.4-4-0.7-8-1.1-12
		c-0.4-4.8-0.9-9.6-1.3-14.5c-0.5-5.5-1-11-1.5-16.6c-0.5-6.1-1.1-12.2-1.6-18.3c-0.6-6.5-1.2-13.1-1.7-19.6
		c-0.6-6.8-1.2-13.7-1.8-20.5c-0.6-7-1.3-14.1-1.9-21.1c-0.6-7-1.3-14.1-1.9-21.1c-0.6-6.9-1.2-13.8-1.9-20.8
		c-0.6-6.7-1.2-13.4-1.8-20.1c-0.6-6.3-1.1-12.6-1.7-19c-0.5-5.8-1-11.6-1.6-17.4c-0.5-5.2-0.9-10.4-1.4-15.6
		c-0.4-4.4-0.8-8.8-1.2-13.2c-0.3-3.5-0.6-7-0.9-10.5c-0.2-2.5-0.4-4.9-0.7-7.4c-0.1-1.3-0.2-2.6-0.3-3.8c0-0.2,0-0.3,0-0.5
		c0.7,0,1.3,0,2,0c1.9,0,3.7,0,5.6,0c3,0,5.9,0,8.9,0c3.9,0,7.8,0,11.7,0c4.7,0,9.4,0,14.2,0c5.4,0,10.8,0,16.2,0c6,0,11.9,0,17.9,0
		c6.4,0,12.8,0,19.2,0c6.7,0,13.4,0,20.1,0c6.9,0,13.7,0,20.6,0c6.9,0,13.8,0,20.7,0c6.8,0,13.6,0,20.4,0c6.6,0,13.1,0,19.7,0
		c6.2,0,12.4,0,18.6,0c5.7,0,11.4,0,17.1,0c5.1,0,10.1,0,15.2,0c4.3,0,8.6,0,13,0c3.4,0,6.9,0,10.3,0c2.4,0,4.8,0,7.2,0
		c1.3,0,2.5,0,3.8,0c0.2,0,0.3,0,0.5,0c-0.1,1.3-0.2,2.6-0.4,3.9c-0.3,3.7-0.7,7.4-1,11.1c-0.5,5.7-1,11.4-1.5,17
		c-0.6,7.3-1.3,14.6-1.9,21.9c-0.8,8.5-1.5,17-2.3,25.6c-0.8,9.4-1.7,18.7-2.5,28.1c-0.9,9.8-1.8,19.7-2.6,29.5
		c-0.9,9.9-1.8,19.9-2.7,29.8c-0.9,9.6-1.7,19.3-2.6,28.9c-0.8,9-1.6,17.9-2.4,26.9c-0.7,7.9-1.4,15.9-2.1,23.8
		c-0.6,6.5-1.2,13-1.7,19.4c-0.4,4.7-0.8,9.3-1.2,14c-0.2,2.5-0.4,5-0.7,7.4c0,0.2,0,0.8-0.1,0.9c-0.1,0.1-0.6,0.2-0.7,0.2
		c-0.6,0.2-1.2,0.3-1.8,0.5c-5.4,1.5-10.8,3-16.1,4.5c-8.5,2.4-17,4.7-25.6,7.1c-9.5,2.6-19.1,5.3-28.6,7.9
		c-8.4,2.3-16.8,4.7-25.3,7c-5.2,1.4-10.4,2.9-15.5,4.3c-0.7,0.2-1.4,0.4-2.1,0.6"/>
	<path class="st7" d="M256,391.7c0-1.3,0-2.5,0-3.8c0-3.5,0-7,0-10.6c0-5.4,0-10.8,0-16.3c0-7,0-13.9,0-20.9c0-8.1,0-16.2,0-24.4
		c0-8.9,0-17.9,0-26.8c0-9.4,0-18.7,0-28.1c0-9.4,0-18.9,0-28.3c0-9.1,0-18.3,0-27.4c0-8.5,0-16.9,0-25.4c0-7.4,0-14.9,0-22.3
		c0-6,0-12.1,0-18.1c0-4.3,0-8.6,0-12.9c0-2.2,0-4.3,0-6.5c0-0.3-0.1-0.4,0.1-0.6c0.2-0.1,0.9,0,1.1,0c0.7,0,1.4,0,2.1,0
		c5.6,0,11.2,0,16.7,0c8.5,0,17,0,25.5,0c9.4,0,18.7,0,28.1,0c8.2,0,16.4,0,24.7,0c5,0,10.1,0,15.1,0c0.7,0,1.4,0,2.1,0
		c-0.2,2.2-0.4,4.4-0.6,6.6c-0.5,6-1.1,11.9-1.6,17.9c-0.8,8.8-1.6,17.7-2.4,26.5c-1,10.8-1.9,21.5-2.9,32.3
		c-1.1,11.8-2.1,23.6-3.2,35.4c-1.1,11.9-2.1,23.8-3.2,35.7c-1,11.1-2,22.2-3,33.3c-0.8,9.4-1.7,18.8-2.5,28.2
		c-0.6,6.7-1.2,13.5-1.8,20.2c-0.3,3.2-0.6,6.4-0.9,9.6c0,0.1,0,0.3,0,0.4"/>
	<path class="st8" d="M167.2,154.8c2.9,0,5.7,0,8.6,0c6.9,0,13.7,0,20.6,0c8.4,0,16.7,0,25.1,0c7.4,0,14.9,0,22.3,0
		c3.9,0,7.9-0.1,11.8,0c0.1,0,0.4,0,0.5,0c0.2,0.2,0,1.5,0,1.7c0,3.1,0,6.2,0,9.3c0,7.4,0,14.9,0,22.3c0,0.4,0.2,1.7,0,2
		c-0.1,0.1-0.4,0.1-0.6,0.1c-2.1,0-4.3,0-6.4,0c-7.9,0-15.7,0-23.6,0c-6.1,0-12.3,0-18.4,0c-0.3,0-0.6,0-1,0
		c0.6,6.6,1.2,13.2,1.8,19.8c0.4,4.2,0.8,8.3,1.1,12.5c0.1,1.1,0.2,2.3,0.3,3.4c0,0.5-0.1,0.4,0.4,0.5c0.8,0.2,1.8,0,2.6,0
		c1.5,0,3.1,0,4.6,0c4.4,0,8.7,0,13.1,0c8,0,16,0,24,0c0.4,0,1.7-0.2,2,0c0.2,0.1,0.1,0.8,0.1,1.1c0,3.4,0,6.8,0,10.2
		c0,7.8,0,15.6,0,23.4c0,0.4,0.1,0.4-0.2,0.6c-0.3,0.2-1.2,0-1.5,0c-2.4,0-4.8,0-7.3,0c-8.3,0-16.7,0-25,0c-9.2,0-18.5,0-27.7,0
		c-5.5,0-11.1,0-16.6,0c-0.3,0-0.5,0-0.8,0 M178.4,279.4c4,0,8,0,12,0c6.4,0,12.7,0,19.1,0c1,0,2,0,2.9,0c0.3,0,1.2-0.2,1.4,0
		c0.1,0.1,0.1,0.4,0.1,0.6c0.1,0.9,0.2,1.7,0.2,2.6c0.6,6.3,1.1,12.6,1.7,18.8c0.1,1.3,0.2,2.5,0.3,3.8c0.1,0.7,0,1.5,0.2,2.2
		c0.1,0.4,0,0.2,0.2,0.4c0.4,0.2,1.1,0.3,1.6,0.4c5.3,1.4,10.7,2.9,16,4.3c5.9,1.6,11.9,3.2,17.8,4.8c0.9,0.2,1.7,0.5,2.6,0.7
		c0.3,0.1,1.1,0.1,1.3,0.3c0.3,0.3,0.1,2,0.1,2.5c0,5.9,0,11.9,0,17.8c0,5.3,0,10.5,0,15.8c0,0.3,0,0.6,0,0.9
		c-2.4-0.7-4.8-1.3-7.2-2c-5.8-1.6-11.6-3.2-17.3-4.8c-7-1.9-14-3.9-21-5.8c-6-1.7-12.1-3.4-18.1-5c-2.9-0.8-5.9-1.6-8.8-2.4
		c0,0-0.1,0-0.1,0"/>
	<path class="st3" d="M344.5,154.8c-4,0-8,0-12.1,0c-9.1,0-18.1,0-27.2,0c-9.8,0-19.6,0-29.4,0c-6.2,0-12.3,0-18.5,0
		c-0.3,0-1.2-0.2-1.4,0c-0.2,0.1-0.1,0.7-0.1,0.9c0,3.6,0,7.2,0,10.8c0,4.9,0,9.9,0,14.8c0,1.9,0,3.9,0,5.8c0,0.6,0,1.3,0,1.9
		c0,0.2-0.1,0.8,0,1c0.2,0.4,2.1,0.1,2.6,0.1c2.8,0,5.5,0,8.3,0c9.1,0,18.1,0,27.2,0c9.7,0,19.4,0,29.2,0c5.8,0,11.6,0,17.4,0
		c0.3,0,0.5,0,0.8,0 M338,226.3c-2.6,0-5.2,0-7.9,0c-6.4,0-12.7,0-19.1,0c-7.8,0-15.5,0-23.3,0c-6.9,0-13.7,0-20.6,0
		c-3.6,0-7.3-0.2-11,0c-0.1,0-0.4,0-0.4,0c-0.2,0.2,0,1.2,0,1.4c0,2.8,0,5.5,0,8.3c0,7.2,0,14.4,0,21.6c0,1,0,2,0,3.1
		c0,0.2-0.1,0.9,0,1c0.1,0.1,1,0,1.2,0c1,0,1.9,0,2.9,0c7,0,14,0,21,0c5.8,0,11.7,0,17.5,0c0.3,0,0.6,0,1,0
		c-0.7,8.2-1.5,16.5-2.2,24.7c-0.5,5.3-0.9,10.6-1.4,15.9c-0.1,1.5-0.3,3-0.4,4.5c-0.1,0.6,0.1,0.8-0.4,1c-1.1,0.5-2.7,0.7-3.9,1
		c-2.3,0.6-4.6,1.2-6.9,1.8c-5.7,1.5-11.4,3-17,4.6c-2.3,0.6-4.6,1.2-7,1.9c-1.3,0.4-2.7,0.6-4,1.1c-0.6,0.2-0.4,0.4-0.4,1.1
		c0,1.7,0,3.5,0,5.2c0,9.9,0,19.9,0,29.8c0,0.2,0,0.4,0,0.7c2.4-0.7,4.8-1.3,7.2-2c5.8-1.6,11.5-3.2,17.3-4.8
		c7-1.9,13.9-3.9,20.9-5.8c6-1.7,12.1-3.3,18.1-5c2.9-0.8,5.9-1.6,8.8-2.5c0,0,0.1,0,0.1,0"/>
</g>
</svg>
